<?xml version="1.0" standalone="no"?>
<!DOCTYPE svg PUBLIC "-//W3C//DTD SVG 20010904//EN"
 "http://www.w3.org/TR/2001/REC-SVG-20010904/DTD/svg10.dtd">
<svg version="1.0" xmlns="http://www.w3.org/2000/svg"
 width="2048.000000pt" height="2048.000000pt" viewBox="0 0 2048.000000 2048.000000"
 preserveAspectRatio="xMidYMid meet">
<metadata>
Created by potrace 1.11, written by Peter Selinger 2001-2013
</metadata>
<g transform="translate(0.000000,2048.000000) scale(0.100000,-0.100000)"
fill="#000000" stroke="none">
<path d="M12 10243 l3 -10228 10228 -3 10227 -2 0 10230 0 10230 -10230 0
-10230 0 2 -10227z m10209 6614 c70 -23 127 -55 143 -80 12 -18 16 -209 25
-1157 17 -1657 50 -3871 58 -3880 5 -5 19 10 158 165 39 44 95 106 125 139 30
34 85 95 121 136 37 41 129 145 204 230 76 85 168 189 204 230 36 41 89 99
116 130 28 31 115 130 195 220 80 90 170 191 200 225 44 49 162 180 215 239
72 80 188 209 217 241 20 22 45 50 55 61 10 12 70 77 133 145 97 104 179 193
225 244 119 132 532 560 810 840 417 420 495 483 697 570 259 111 504 139 743
83 112 -26 194 -68 260 -133 74 -73 90 -112 90 -216 0 -80 -3 -91 -39 -165
-37 -74 -61 -100 -360 -399 -297 -297 -428 -430 -676 -690 -199 -209 -706
-762 -980 -1070 -69 -77 -129 -145 -135 -151 -14 -16 -151 -169 -210 -234 -51
-58 -166 -187 -198 -224 -10 -12 -31 -35 -45 -51 -15 -17 -61 -68 -102 -115
-117 -133 -144 -162 -160 -180 -8 -8 -64 -72 -125 -140 -60 -69 -112 -127
-115 -130 -3 -3 -39 -43 -80 -90 -41 -47 -77 -87 -80 -90 -3 -3 -88 -97 -190
-210 -101 -113 -187 -207 -190 -210 -8 -8 -112 -121 -220 -239 -52 -57 -95
-107 -95 -110 1 -16 167 -346 214 -426 221 -374 506 -711 1115 -1320 334 -333
371 -369 571 -550 231 -209 568 -493 735 -620 36 -27 67 -52 70 -56 9 -11 431
-323 535 -395 352 -243 491 -333 788 -510 596 -356 1215 -652 1782 -853 50
-18 108 -39 131 -47 79 -28 119 -82 109 -148 -14 -92 -98 -178 -269 -273 -336
-189 -811 -295 -1123 -252 -179 25 -848 301 -1412 583 -181 91 -293 151 -566
303 -203 113 -712 434 -906 570 -182 129 -491 356 -577 424 -44 35 -131 104
-193 154 -196 155 -501 414 -664 566 -27 25 -84 77 -125 115 -222 204 -728
714 -875 882 -21 23 -41 42 -45 42 -4 0 -6 -39 -4 -87 2 -49 9 -286 14 -528
10 -396 17 -666 50 -1840 5 -192 12 -413 15 -490 3 -77 10 -286 15 -465 16
-494 39 -1196 46 -1370 6 -143 5 -159 -14 -202 -50 -114 -195 -222 -402 -298
-219 -81 -469 -115 -627 -87 -98 18 -185 56 -207 89 -23 35 -18 -73 -76 1738
-36 1122 -90 3111 -90 3303 0 55 -4 97 -9 95 -5 -1 -103 -82 -218 -179 -977
-824 -1866 -1419 -2843 -1903 -324 -161 -704 -329 -893 -395 -255 -89 -517
-114 -702 -66 -146 38 -285 136 -324 229 -28 64 -28 162 0 244 52 156 234 318
461 412 329 137 482 206 733 330 364 180 461 234 790 438 180 112 583 381 700
467 428 316 391 287 675 515 85 68 169 136 185 151 17 14 98 84 180 155 83 70
152 131 155 134 3 3 28 25 55 50 59 52 269 246 299 275 20 19 20 19 -46 31
-117 22 -624 244 -1108 486 -358 179 -426 215 -843 452 -221 126 -937 578
-1042 659 -11 8 -205 143 -270 188 -37 25 -338 248 -360 266 -5 5 -46 36 -90
70 -288 218 -590 472 -615 516 -60 104 9 258 171 383 72 55 285 162 404 202
229 78 543 106 719 63 123 -29 145 -42 281 -156 66 -56 181 -150 255 -209 74
-60 144 -116 155 -125 11 -9 67 -52 125 -96 58 -44 110 -83 115 -88 52 -41
259 -191 430 -311 335 -235 456 -314 760 -499 324 -197 596 -347 980 -542 307
-155 664 -325 684 -325 5 0 7 41 5 98 -15 346 -73 4478 -75 5355 0 425 -8 390
109 497 48 44 99 77 177 115 151 74 262 108 485 149 54 10 296 -2 341 -17z"/>
</g>
</svg>
